<?xml version="1.0" encoding="utf-8"?>
<!-- Generator: Adobe Illustrator 24.0.0, SVG Export Plug-In . SVG Version: 6.00 Build 0)  -->
<svg version="1.1" id="圖層_1" xmlns="http://www.w3.org/2000/svg" xmlns:xlink="http://www.w3.org/1999/xlink" x="0px" y="0px"
	 viewBox="0 0 184.82 49.99" style="enable-background:new 0 0 184.82 49.99;" xml:space="preserve">
<style type="text/css">
	.st0{enable-background:new    ;}
</style>
<g class="st0">
	<path d="M11.92,9.29c-1.71,7.81-4.11,22.18-5.04,31.97c-0.83-0.18-1.66-0.32-2.22-0.74c-0.55-0.37-0.88-0.97-0.79-2.03
		C4.57,31,7.44,15.62,8.59,9.8c-0.65,0.09-2.17,0.37-2.86,0.51C5.82,9.56,5.87,8.83,6.1,8.27c0.19-0.51,0.55-0.92,1.16-1.2
		c4.85-1.11,11.78-1.52,15.76-1.85C22.64,4.48,21.85,3.47,21.48,3c0.79-0.32,2.36-0.92,3.14-1.25c0.46,0.6,1.66,2.08,2.17,3.23
		c4.71-0.18,11.6-0.37,16.36-0.28v2.91C32.62,7.39,18.48,8.41,11.92,9.29z M26.52,17.79c-0.05,1.62-0.14,4.85-0.19,5.64
		c1.52-0.05,5.59-0.19,7.49-0.05c1.8,0.14,3,0.55,4.02,1.43c1.06,0.88,1.71,2.08,2.03,3.79c0.55,2.86,0.69,7.95,0.74,11.04
		c-9.98,0.14-22.45,0.74-28.37,1.76c0.46-4.57,0.97-9.15,1.85-13.54c-0.79,0.14-1.94,0.32-2.68,0.51c0.09-0.55,0.14-1.29,0.37-1.94
		c0.19-0.65,0.6-1.25,1.43-1.43c2.96-0.74,7.58-1.11,9.93-1.34c0.14-4.44,0.37-9.29,0.14-14.05c0.83-0.14,2.31-0.28,3.14-0.37
		c0.09,1.43,0.18,3.88,0.09,5.54c4.62-0.51,11.46-0.97,15.76-0.97v3.05C37.33,16.82,31.14,17.19,26.52,17.79z M36.78,29.85
		c-0.14-1.29-0.46-2.26-1.29-2.91c-0.69-0.51-1.76-0.74-3.33-0.74c-4.48,0-10.72,0.37-14.69,1.06c-0.79,3.46-1.25,7.16-1.62,10.67
		c6.15-0.79,16.08-1.11,21.35-1.2C37.19,34.61,37.01,31.88,36.78,29.85z"/>
	<path d="M88.02,12.89c-0.79,0.28-1.52,0.37-2.36,0.32c0.14-0.79,0.37-2.82,0.32-4.07c0-0.69-0.23-1.2-0.69-1.48
		c-0.37-0.23-0.88-0.37-1.48-0.42c-4.57-0.18-9.06-0.18-13.49-0.05c-5.17,0.18-10.3,0.6-15.39,1.29c-0.51,1.89-0.55,3.93-0.65,5.96
		c-1.06,0.14-2.59,0.32-3.42,0.42c0.09-1.99,0.28-3.97,0.65-5.87c-0.55,0.05-1.25,0.14-1.8,0.23c0.05-0.65,0.09-1.48,0.46-2.13
		c0.28-0.51,0.74-0.97,1.57-1.06c4.44-0.6,10.63-1.34,16.17-1.48c-0.28-0.51-0.74-1.25-1.02-1.62c0.74-0.32,2.03-0.92,2.73-1.25
		c0.6,0.83,1.39,1.94,1.89,2.68c3.19-0.05,9.01,0,12.15,0.05c1.43,0.05,2.73,0.32,3.74,0.97c0.88,0.6,1.52,1.52,1.71,2.91
		c0.09,0.79,0.14,2.22,0.05,3.23C89.03,12.29,88.62,12.71,88.02,12.89z M83.26,13.58c-2.73,0-8.18,0-10.63,0.05l-3.74,1.99
		c1.39,1.34,2.54,3,3.47,4.9c4.16-1.76,8.69-3.37,12.47-4.71l1.57,2.31c-4.71,1.48-8.83,3-12.98,4.9v0.09
		c5.31,4.16,10.17,8.36,14.51,12.43c0.74,0.69,0.74,1.43,0.51,2.13c-0.23,0.65-0.69,1.39-1.06,1.8c-4.3-4.57-8.59-8.5-12.8-11.87
		c0.37,2.08,0.46,4.2,0.37,6.33c-0.14,2.45-0.79,4.25-2.03,5.45c-1.43,1.39-3.6,2.03-6.38,1.76c-0.69-0.05-1.16-0.51-1.52-1.02
		c-0.51-0.74-0.74-1.76-0.92-2.45c1.85,0.42,3.97,0.37,5.59,0.09c0.97-0.18,1.71-1.15,1.94-2.73c0.23-1.89,0.37-5.27,0.05-6.61
		c-6.88,3.79-11.6,6.75-20.1,12.57c-0.32-0.51-0.6-0.97-0.74-1.52c-0.28-0.74-0.28-1.52,0.42-2.03c6.65-4.57,13.63-8.64,19.78-11.92
		c-0.19-1.16-0.65-2.36-1.2-3.47c-6.05,3.14-12.47,6.7-18.16,10.81c-0.23-0.42-0.65-1.15-0.74-1.85c-0.09-0.69,0.09-1.43,0.97-1.99
		c4.76-3,11.41-6.93,16.45-9.38c-0.55-0.92-1.39-1.99-2.22-2.63c-4.81,2.31-9.93,5.04-14.51,7.95c-0.32-0.6-0.55-1.25-0.65-1.8
		c-0.14-0.83,0.05-1.53,0.69-1.89c3.56-2.13,9.52-5.22,13.45-7.07c-3,0.14-5.91,0.55-8.83,1.02c0-0.51-0.05-1.29,0.14-1.99
		c0.14-0.65,0.51-1.11,1.2-1.29c4.16-0.51,8.78-0.88,13.21-1.06c4.57-0.19,8.96-0.23,12.48-0.14C83.31,11.41,83.26,12.8,83.26,13.58
		z"/>
	<path d="M110.61,10.3c-1.25,0-4.2,0.05-5.36,0.28c0.05,1.89,0.14,5.31,0.18,7.21c0.79-0.65,2.17-1.66,3-2.31
		c0.42,0.83,1.02,2.08,1.34,2.68c-1.48,0.97-2.91,2.12-4.3,3.23c0,3.83-0.05,12.29-0.28,15.94c-0.09,1.39-0.55,2.59-1.71,3.37
		c-0.92,0.6-2.91,0.79-3.88,0.74c-0.88-0.05-1.43-0.37-1.8-0.88c-0.46-0.6-0.6-1.48-0.69-2.45c1.25,0.28,2.63,0.28,3.97,0.23
		c0.83-0.05,1.11-0.79,1.16-1.48c0.18-3.65,0.42-9.01,0.28-12.89c-1.76,1.53-3.74,3.47-5.27,5.27c-0.37-0.42-0.83-1.11-1.06-1.85
		c-0.23-0.65-0.23-1.25,0.18-1.71c1.89-1.94,4.25-4.11,6.19-5.59c-0.05-2.59-0.18-7.12-0.28-9.29c-1.52,0.23-4.67,0.88-5.96,1.2
		c-0.05-0.46-0.05-1.15,0.09-1.8c0.14-0.6,0.42-1.16,0.97-1.34c1.52-0.42,3.14-0.65,4.76-0.88c0-1.76-0.18-4.57-0.32-6.1
		c0.65,0,2.31-0.05,3.05-0.05c0.09,1.48,0.23,4.44,0.28,5.82c1.34-0.09,3.74-0.18,5.5-0.23C110.66,8.09,110.66,9.47,110.61,10.3z
		 M135.33,40.1c-6.84,0-14.09-0.09-21.76,1.02c-0.09-6.93,0.42-19.31,0.88-25.32c-0.55,1.25-1.16,2.73-1.62,4.07
		c-0.46-0.28-1.06-0.69-1.48-1.16c-0.55-0.55-0.88-1.2-0.6-1.94c1.71-4.44,5.27-10.81,7.62-14.79c0.65,0.32,1.76,0.92,2.63,1.34
		c-1.39,2.22-2.68,4.67-3.88,6.93c1.71-0.23,5.59-0.65,7.49-0.74c-0.42-1.89-1.48-4.3-2.54-6.33c0.83-0.32,2.03-0.83,2.68-1.11
		c0.92,1.66,1.76,3.33,2.4,5.13c0.37,1.02-0.51,1.76-1.25,2.26c2.36-0.14,6.65-0.32,9.47-0.28c0.05,0.83,0.05,2.17,0.05,2.96
		c-2.45-0.05-5.64,0-8.5,0.09c0.05,1.57,0.14,4.57,0.18,5.91c2.4-0.05,4.8-0.09,7.3-0.14c0,0.74-0.05,2.17-0.05,2.82
		c-1.8,0.05-5.31,0.05-7.16,0.09v6.38c2.12-0.05,5.36-0.05,7.16,0v2.73c-2.22,0-4.94,0.05-7.16,0.09c-0.09,1.71-0.23,5.13-0.28,7.02
		c2.59-0.05,6.33-0.05,8.5-0.05C135.42,37.75,135.38,39.32,135.33,40.1z M116.67,30.91c-0.14,2.4-0.14,4.67,0,6.93
		c2.17-0.23,5.04-0.46,7.35-0.55c0.05-1.71,0.18-5.22,0.23-6.98C121.93,30.4,118.98,30.54,116.67,30.91z M124.24,21.07
		c-2.4,0.18-4.85,0.37-7.21,0.69c-0.18,1.85-0.28,4.48-0.32,6.33c2.4-0.42,5.17-0.51,7.53-0.65
		C124.29,25.87,124.29,22.78,124.24,21.07z M123.97,12.43c-1.8,0.09-4.57,0.46-6.38,0.69c-0.19,1.66-0.37,4.02-0.46,5.82
		c2.31-0.28,4.85-0.51,7.07-0.65C124.15,16.82,124.01,13.95,123.97,12.43z"/>
	<path d="M160.79,7.21c-1.25,0.05-2.45,0.14-3.7,0.23c0.37,0.88,0.37,1.62-0.28,2.31c-0.46,0.51-1.06,0.88-1.71,1.11
		c-0.42-1.02-0.88-2.08-1.39-3.14c-4.07,0.37-7.95,0.88-11.46,1.39c0-0.55,0.05-1.16,0.28-1.71c0.28-0.55,0.69-1.02,1.39-1.11
		c2.54-0.37,5.45-0.74,8.59-1.02c-0.37-0.74-0.79-1.48-1.2-2.17l2.91-1.06c0.55,0.88,1.16,1.99,1.66,2.96
		c1.57-0.09,3.19-0.14,4.8-0.18L160.79,7.21z M167.81,13.08c0.09,0.65,0.18,1.8,0.23,2.59c1.85-0.09,4.02-0.14,6.05-0.05
		c1.16,0.05,2.82,0.65,3.42,1.89c0.83,1.75,1.16,3.6,1.34,5.73c-7.49,0.05-15.85,0.23-23.15,0.65c-0.28,0.74-0.55,1.66-0.65,2.31
		c8.55-0.55,16.45-0.88,25.04-0.92c0.05,0.6,0.05,1.8,0,2.4c-8.82,0.05-17,0.28-25.69,1.02c-0.14,0.6-0.42,1.57-0.51,2.03
		c6.19-0.55,14.42-0.79,20.7-0.79c1.34,0,2.4,0.23,3.23,0.65c1.02,0.51,1.66,1.25,2.08,2.03c0.46,0.88,0.65,1.94,0.69,3.05
		c0.05,1.25-0.18,2.54-0.74,3.51c-0.65,1.16-1.71,1.71-2.87,1.89c-1.02,0.14-2.45,0.09-3.14,0c-0.42-0.09-0.69-0.51-0.88-1.06
		s-0.32-1.25-0.32-1.85c1.02,0.14,2.17,0.18,3.23,0.09c0.6-0.05,1.48-0.6,1.52-1.29c0.09-0.88,0-2.17-0.18-3.14
		c-0.18-0.88-0.97-1.39-1.99-1.39c-3.28-0.05-7.16,0-11.14,0.19c-4.67,0.23-9.56,0.55-13.86,0.97c0.51-3.23,1.25-6.38,2.26-9.42
		c-1.62,0.05-3.37,0.18-4.99,0.37c-0.65,4.34-1.43,10.12-2.03,16.45c-0.69-0.09-1.39-0.32-1.89-0.65c-0.69-0.51-1.11-1.2-1.02-2.03
		c0.79-7.53,2.08-15.52,3.7-23.79c-0.83,0.05-1.66,0.18-2.54,0.32c0-0.6,0.05-1.2,0.28-1.71c0.19-0.42,0.46-0.74,1.02-0.83
		c3.65-0.51,11.92-1.16,15.52-1.29c-0.42-0.46-0.97-1.06-1.39-1.43c0.79-0.32,2.26-0.92,3.05-1.2c0.51,0.6,1.48,1.8,2.03,2.5
		c3-0.09,11.74-0.23,16.17-0.28c0.05,0.69,0.05,1.57,0,2.4C176.96,12.94,171.37,12.98,167.81,13.08z M148.41,19.22
		c-0.14,0.79-0.37,2.03-0.51,2.91c2.36-0.18,4.76-0.37,7.07-0.55c0.09-0.69,0.19-1.99,0.23-2.86
		C152.94,18.8,150.62,18.99,148.41,19.22z M150.16,41.35c-0.69-0.37-1.25-0.74-1.57-1.2c-0.32-0.51-0.42-1.06-0.05-1.66
		c0.69-1.11,2.68-3.28,4.02-4.57c0.88,0.42,1.71,0.83,2.59,1.34C153.35,37.24,151.64,39.27,150.16,41.35z M149.29,14.18
		c-0.09,0.65-0.32,1.89-0.42,2.5c1.62-0.18,4.34-0.37,6.51-0.46c0.05-0.6,0.18-1.8,0.28-2.54
		C153.54,13.82,151.23,13.95,149.29,14.18z M159.59,40.38c-0.6,0.32-1.34,0.46-1.8,0.55c-0.14-2.08-0.46-4.34-0.88-6.24
		c0.88-0.23,1.85-0.46,2.82-0.6c0.37,1.48,0.69,3.14,0.92,4.71C160.74,39.55,160.24,40.06,159.59,40.38z M165.09,18.16
		c-2.22,0.09-4.53,0.18-6.75,0.32c0,0.88-0.09,2.12-0.14,2.87c1.71-0.05,5.17-0.23,6.98-0.28C165.18,20.14,165.13,18.9,165.09,18.16
		z M164.76,13.26c-2.03,0-3.97,0.09-5.91,0.23c-0.09,0.69-0.23,1.94-0.32,2.5c1.57-0.09,4.39-0.18,6.42-0.28
		C164.95,14.88,164.86,13.82,164.76,13.26z M172.48,2.59c-0.28,0.6-0.55,1.2-0.83,1.85c3.05-0.09,6.28-0.09,9.79-0.05v2.4
		c-3.79-0.09-7.44-0.05-10.9,0.09c-0.51,1.11-0.97,2.26-1.43,3.42c-0.65-0.23-1.48-0.6-1.99-1.16c-0.65-0.74-0.6-1.29-0.23-2.12
		c-1.52,0.09-3.05,0.18-4.53,0.32c0.05-0.51,0.23-1.06,0.51-1.57c0.32-0.55,0.83-1.02,1.52-1.06c1.2-0.09,2.4-0.14,3.65-0.18
		c0.46-0.92,0.97-1.89,1.43-2.77L172.48,2.59z M166.2,39.41c-0.51,0.42-1.25,0.69-1.8,0.83c-0.51-2.08-1.02-4.16-1.89-6.1
		c0.65-0.18,2.13-0.51,2.77-0.65c0.65,1.25,1.39,3,1.66,4.25C167.12,38.49,166.7,39.04,166.2,39.41z M175.48,20.79
		c0-0.74-0.18-1.34-0.51-1.8c-0.37-0.46-0.79-0.74-1.43-0.83c-1.34-0.14-3.7-0.14-5.31-0.05c0.05,0.83,0.05,1.99,0,2.86
		L175.48,20.79z M172.53,37.52c-0.37,0.46-0.97,0.83-1.57,1.16c-0.6-1.48-1.34-3.1-2.22-4.62c0.69-0.23,2.08-0.74,2.63-0.92
		c0.55,0.74,1.29,1.94,1.48,2.54C173.13,36.41,172.94,37.01,172.53,37.52z"/>
</g>
</svg>
